<svg xmlns="http://www.w3.org/2000/svg" xmlns:xlink="http://www.w3.org/1999/xlink" width="428.5" height="421" viewBox="0 0 428.5 421">
  <defs>
    <filter id="Rectangle_18" x="1.5" y="0" width="427" height="421" filterUnits="userSpaceOnUse">
      <feOffset dy="14" input="SourceAlpha"/>
      <feGaussianBlur stdDeviation="7.5" result="blur"/>
      <feFlood flood-opacity="0.051"/>
      <feComposite operator="in" in2="blur"/>
      <feComposite in="SourceGraphic"/>
    </filter>
  </defs>
  <g id="Group_35" data-name="Group 35" transform="translate(-1097 -351.5)">
    <g transform="matrix(1, 0, 0, 1, 1097, 351.5)" filter="url(#Rectangle_18)">
      <rect id="Rectangle_18-2" data-name="Rectangle 18" width="382" height="376" rx="38" transform="translate(24 8.5)" fill="#fff"/>
    </g>
    <g id="Component_5_1" data-name="Component 5 – 1" transform="translate(1097 417)">
      <g id="Group_21" data-name="Group 21" transform="translate(-1085 -168)">
        <g id="Group_15" data-name="Group 15" transform="translate(11 21)">
          <g id="Ellipse_2" data-name="Ellipse 2" transform="translate(1074 287)" fill="#fff" stroke="#c2c2c2" stroke-width="3">
            <circle cx="25" cy="25" r="25" stroke="none"/>
            <circle cx="25" cy="25" r="23.5" fill="none"/>
          </g>
          <path id="Path_6" data-name="Path 6" d="M5656.5,318.305l7.792,6.918,14.838-15" transform="translate(-4568.819 -6.223)" fill="none" stroke="#fff" stroke-width="6"/>
        </g>
        <g id="Group_16" data-name="Group 16" transform="translate(-25.806)">
          <rect id="Rectangle_19" data-name="Rectangle 19" width="301" height="15" rx="7.5" transform="translate(1184.806 313)" fill="#c6ff70"/>
          <rect id="Rectangle_20" data-name="Rectangle 20" width="80" height="15" rx="7.5" transform="translate(1184.806 338)" fill="#c6ff70"/>
          <rect id="Rectangle_21" data-name="Rectangle 21" width="15" height="15" rx="7.5" transform="translate(1450.806 338)" fill="#c6ff70"/>
          <rect id="Rectangle_22" data-name="Rectangle 22" width="15" height="15" rx="7.5" transform="translate(1470.806 338)" fill="#c6ff70"/>
        </g>
      </g>
      <g id="Group_18" data-name="Group 18" transform="translate(-1085 -238)">
        <g id="Group_15-2" data-name="Group 15" transform="translate(11 21)">
          <g id="Path_7" data-name="Path 7" transform="translate(1074 287)" fill="#fff">
            <path d="M 25 48.5 C 21.82686042785645 48.5 18.74942970275879 47.87886810302734 15.85319995880127 46.65386962890625 C 13.05500984191895 45.47034072875977 10.54166984558105 43.77568817138672 8.382989883422852 41.61700820922852 C 6.224309921264648 39.45832824707031 4.529660224914551 36.94498825073242 3.346129894256592 34.14680099487305 C 2.121129989624023 31.25057029724121 1.5 28.17313957214355 1.5 25 C 1.5 21.82686042785645 2.121129989624023 18.74942970275879 3.346129894256592 15.85319995880127 C 4.529660224914551 13.05500984191895 6.224309921264648 10.54166984558105 8.382989883422852 8.382989883422852 C 10.54166984558105 6.224309921264648 13.05500984191895 4.529660224914551 15.85319995880127 3.346129894256592 C 18.74942970275879 2.121129989624023 21.82686042785645 1.5 25 1.5 C 28.17313957214355 1.5 31.25057029724121 2.121129989624023 34.14680099487305 3.346129894256592 C 36.94498825073242 4.529660224914551 39.45832824707031 6.224309921264648 41.61700820922852 8.382989883422852 C 43.77568817138672 10.54166984558105 45.47034072875977 13.05500984191895 46.65386962890625 15.85319995880127 C 47.87886810302734 18.74942970275879 48.5 21.82686042785645 48.5 25 C 48.5 28.17313957214355 47.87886810302734 31.25057029724121 46.65386962890625 34.14680099487305 C 45.47034072875977 36.94498825073242 43.77568817138672 39.45832824707031 41.61700820922852 41.61700820922852 C 39.45832824707031 43.77568817138672 36.94498825073242 45.47034072875977 34.14680099487305 46.65386962890625 C 31.25057029724121 47.87886810302734 28.17313957214355 48.5 25 48.5 Z" stroke="none"/>
            <path d="M 25 3 C 22.02869987487793 3 19.14785957336426 3.581260681152344 16.43753051757812 4.727638244628906 C 13.81813812255859 5.835540771484375 11.46506118774414 7.4222412109375 9.443649291992188 9.443649291992188 C 7.4222412109375 11.46506118774414 5.835540771484375 13.81813812255859 4.727638244628906 16.43753051757812 C 3.581260681152344 19.14785957336426 3 22.02869987487793 3 25 C 3 27.97130012512207 3.581260681152344 30.85214042663574 4.727638244628906 33.56246948242188 C 5.835540771484375 36.18186187744141 7.4222412109375 38.53493881225586 9.443649291992188 40.55635070800781 C 11.46506118774414 42.5777587890625 13.81813812255859 44.16445922851562 16.43753051757812 45.27236175537109 C 19.14785957336426 46.41873931884766 22.02869987487793 47 25 47 C 27.97130012512207 47 30.85214042663574 46.41873931884766 33.56246948242188 45.27236175537109 C 36.18186187744141 44.16445922851562 38.53493881225586 42.5777587890625 40.55635070800781 40.55635070800781 C 42.5777587890625 38.53493881225586 44.16445922851562 36.18186187744141 45.27236175537109 33.56246948242188 C 46.41873931884766 30.85214042663574 47 27.97130012512207 47 25 C 47 22.02869987487793 46.41873931884766 19.14785957336426 45.27236175537109 16.43753051757812 C 44.16445922851562 13.81813812255859 42.5777587890625 11.46506118774414 40.55635070800781 9.443649291992188 C 38.53493881225586 7.4222412109375 36.18186187744141 5.835540771484375 33.56246948242188 4.727638244628906 C 30.85214042663574 3.581260681152344 27.97130012512207 3 25 3 M 25 0 C 38.80712127685547 0 50 11.19287872314453 50 25 C 50 38.80712127685547 38.80712127685547 50 25 50 C 11.19287872314453 50 0 38.80712127685547 0 25 C 0 11.19287872314453 11.19287872314453 0 25 0 Z" stroke="none" fill="#c2c2c2"/>
          </g>
          <path id="Path_6-2" data-name="Path 6" d="M5656.5,318.305l7.792,6.918,14.838-15" transform="translate(-4568.819 -6.223)" fill="none" stroke="#fff" stroke-width="6"/>
        </g>
        <g id="Group_16-2" data-name="Group 16" transform="translate(-25.806)">
          <rect id="Rectangle_19-2" data-name="Rectangle 19" width="301" height="15" rx="7.5" transform="translate(1184.806 313)" fill="#fccff7"/>
          <rect id="Rectangle_20-2" data-name="Rectangle 20" width="80" height="15" rx="7.5" transform="translate(1184.806 338)" fill="#fccff7"/>
          <rect id="Rectangle_21-2" data-name="Rectangle 21" width="15" height="15" rx="7.5" transform="translate(1450.806 338)" fill="#fccff7"/>
          <rect id="Rectangle_22-2" data-name="Rectangle 22" width="15" height="15" rx="7.5" transform="translate(1470.806 338)" fill="#fccff7"/>
        </g>
      </g>
      <g id="Group_20" data-name="Group 20" transform="translate(-1085 -308)">
        <g id="Group_15-3" data-name="Group 15" transform="translate(11 21)">
          <circle id="Ellipse_2-2" data-name="Ellipse 2" cx="25" cy="25" r="25" transform="translate(1074 287)" fill="#1fc41f"/>
          <path id="Path_6-3" data-name="Path 6" d="M5656.5,318.305l7.792,6.918,14.838-15" transform="translate(-4568.819 -6.223)" fill="none" stroke="#fff" stroke-width="6"/>
        </g>
        <g id="Group_16-3" data-name="Group 16" transform="translate(-25.806)">
          <rect id="Rectangle_19-3" data-name="Rectangle 19" width="301" height="15" rx="7.5" transform="translate(1184.806 313)" fill="#cfe7fc"/>
          <rect id="Rectangle_20-3" data-name="Rectangle 20" width="80" height="15" rx="7.5" transform="translate(1184.806 338)" fill="#cfe7fc"/>
          <rect id="Rectangle_21-3" data-name="Rectangle 21" width="15" height="15" rx="7.5" transform="translate(1450.806 338)" fill="#cfe7fc"/>
          <rect id="Rectangle_22-3" data-name="Rectangle 22" width="15" height="15" rx="7.5" transform="translate(1470.806 338)" fill="#cfe7fc"/>
        </g>
      </g>
    </g>
  </g>
</svg>
